# xmcd
#
# Track frame offsets:
#	150
#	28575
#	54525
#	80550
#	105375
#	123525
#	148200
#	172275
#	195745
#	216900
#	232870
#	255295
#	278845
#	292120
#	317995
#
# Disc length: 4410 seconds
#
# Revision: 2
# Processed by: cddbd v1.5.1PL2 Copyright (c) Steve Scherf et al.
# Submitted via: EasyCDDAExtractor 8.0.2.1
#
DISCID=e511380f
DTITLE=Ozzy Osbourne - Tingley Coliseum Albuquerque 07-01-82
DYEAR=1982
DGENRE=Hard Rock
TTITLE0=Over The Mountain
TTITLE1=Mr Crowley
TTITLE2=Crazy Train
TTITLE3=Revelation (Mother Earth)
TTITLE4=Steal Away (The Night)
TTITLE5=Suicide Solution
TTITLE6=Guitar and Drum Solo
TTITLE7=Goodbye To Romance
TTITLE8=I Don't Know
TTITLE9=No Bone Movies
TTITLE10=Believer
TTITLE11=Flying High Again
TTITLE12=Iron Man
TTITLE13=Children Of The Grave
TTITLE14=Paranoid
EXTD=
EXTT0=
EXTT1=
EXTT2=
EXTT3=
EXTT4=
EXTT5=
EXTT6=
EXTT7=
EXTT8=
EXTT9=
EXTT10=
EXTT11=
EXTT12=
EXTT13=
EXTT14=
PLAYORDER=
